# xmcd
#
# Track frame offsets:
#   150
#   24240
#   44037
#   59393
#   101217
#   125753
#   141510
#   191635
#   210407
#
# Disc length: 2936 seconds
#
# Revision: 0
# Processed by: cddbd v1.5.2PL0 Copyright (c) Steve Scherf et al.
# Submitted via: uFREEDB ActiveX Control 1.5
#
DISCID=8b0b7609
DTITLE=Mike Bloomfield,Al Kooper and Steve Stills - Super Session
DYEAR=1900
DGENRE=R and B
TTITLE0=Albert's Shuflle
TTITLE1=Stop
TTITLE2=Man's Temptation
TTITLE3=His Holy Modal Majesty
TTITLE4=really
TTITLE5=It Takes a lot to laugh,it takes a train to cry
TTITLE6=Season of the Witch
TTITLE7=You don't love me
TTITLE8=Harve's tune
EXTD=
EXTT0=
EXTT1=
EXTT2=
EXTT3=
EXTT4=
EXTT5=
EXTT6=
EXTT7=
EXTT8=
PLAYORDER=
